<svg width="70" height="72" viewBox="0 0 70 72" fill="none" xmlns="http://www.w3.org/2000/svg">
<g filter="url(#filter0_dd_21_3180)">
<path fill-rule="evenodd" clip-rule="evenodd" d="M29.8158 19.0262C29.1283 18.9305 28.5055 19.0191 28.1905 19.2575C28.0131 19.3917 27.9584 19.5472 27.9437 19.6543C27.9041 19.9378 28.1028 20.2512 28.2247 20.4129C28.57 20.8705 29.0745 21.1851 29.5738 21.2544C29.6462 21.2644 29.7181 21.2693 29.7897 21.2693C30.6224 21.2693 31.3793 20.621 31.4461 20.1424C31.5295 19.5431 30.6594 19.1436 29.8158 19.0262Z" fill="#7B4AE2" fill-opacity="0.5"/>
<path fill-rule="evenodd" clip-rule="evenodd" d="M52.5941 19.0449H52.594C52.5285 18.5752 51.6924 18.4412 50.8991 18.5515C50.107 18.6619 49.3387 19.0194 49.4029 19.4903C49.4544 19.8564 50.1153 20.4815 50.898 20.4814C50.964 20.4814 51.0307 20.477 51.0979 20.4676C51.6203 20.3952 52.0036 20.0635 52.1857 19.8722C52.4631 19.581 52.6234 19.2561 52.5941 19.0449Z" fill="#7B4AE2" fill-opacity="0.5"/>
<mask id="path-3-inside-1_21_3180" fill="white">
<path fill-rule="evenodd" clip-rule="evenodd" d="M65.6637 39.166C65.3727 38.2862 64.4364 38.003 62.8806 38.3245C58.2612 39.2778 56.6069 38.6174 56.0636 38.2174C59.6543 32.7473 62.608 26.1356 64.2014 19.9665C64.9564 17.0443 65.3733 14.3305 65.4073 12.1186C65.4449 9.69047 65.0316 7.90652 64.1787 6.81667C60.7402 2.42299 55.6938 0.0662747 49.585 0.00150562C45.3855 -0.0456681 41.8373 1.02916 41.1494 1.33132C39.7008 0.971069 38.1217 0.749914 36.4026 0.721701C33.2499 0.670735 30.5249 1.42551 28.2686 2.96389C27.2885 2.59925 24.7557 1.72979 21.6585 1.2309C16.3034 0.368581 12.0482 1.02188 9.01154 3.17322C5.38811 5.74032 3.71534 10.3291 4.03949 16.8117C4.14855 18.9929 5.39114 25.7024 7.35242 32.128C9.93393 40.5852 12.7399 45.3729 15.6926 46.3576C16.0381 46.4729 16.4368 46.5536 16.876 46.5536C17.9532 46.5536 19.2736 46.0681 20.6475 44.4164C22.9296 41.6709 25.0603 39.3703 25.8457 38.5344C27.0064 39.1575 28.2813 39.5053 29.5856 39.5402C29.5879 39.5743 29.5914 39.6085 29.5944 39.6424C29.3328 39.9528 29.1182 40.2248 28.9352 40.457C28.0316 41.604 27.8436 41.8428 24.9349 42.4418C24.1076 42.6124 21.9098 43.0653 21.8778 44.6057C21.8428 46.2886 24.4753 46.9955 24.7753 47.0704C25.8205 47.3321 26.8274 47.4611 27.7877 47.4611C30.1234 47.461 32.1785 46.6935 33.8211 45.2083C33.7705 51.2082 34.0207 57.1204 34.7411 58.9218C35.331 60.3963 36.7724 64.0003 41.3255 64C41.9934 64 42.7289 63.9223 43.5378 63.749C48.2895 62.7301 50.3528 60.63 51.1512 56C51.5783 53.5256 52.3114 47.6166 52.656 44.4472C53.3836 44.6741 54.3204 44.778 55.3331 44.7779C57.4451 44.7779 59.8821 44.3292 61.4105 43.6197C63.1272 42.8225 66.2255 40.8658 65.6637 39.166ZM54.3479 17.7482C54.3321 18.684 54.2034 19.5334 54.0668 20.4202C53.92 21.3738 53.768 22.3597 53.7298 23.5567C53.692 24.7215 53.8375 25.9325 53.9783 27.1035C54.2625 29.4689 54.5542 31.9042 53.4249 34.3071C53.2494 33.9954 53.08 33.6553 52.9247 33.2787C52.7843 32.9385 52.4796 32.392 52.0578 31.6355C50.416 28.6913 46.5714 21.7967 48.5395 18.9833C49.1256 18.1457 50.6133 17.2849 54.3479 17.7482ZM49.8212 1.89634C55.2946 2.01723 59.6241 4.06481 62.6896 7.9819C65.0407 10.9865 62.4518 24.6577 54.9569 36.4519C54.8829 36.3579 54.8075 36.2629 54.7295 36.1655C54.6984 36.1266 54.6667 36.087 54.6347 36.0469C56.5714 32.8484 56.1927 29.6838 55.8556 26.8779C55.7171 25.7265 55.5864 24.6389 55.6196 23.6175C55.654 22.5345 55.7972 21.606 55.9356 20.708C56.1059 19.6013 56.279 18.4564 56.2312 17.1066C56.2668 16.9651 56.2813 16.7978 56.2626 16.5992C56.1407 15.3047 54.6629 11.4312 51.6508 7.92471C50.0034 6.00712 47.6005 3.86095 44.3199 2.41343C45.731 2.12098 47.6608 1.84825 49.8212 1.89634ZM19.1936 43.2075C17.68 45.0274 16.6346 44.6787 16.2908 44.5642C14.0509 43.817 11.4521 39.0831 9.16079 31.5761C7.17813 25.0805 6.01942 18.5488 5.9278 16.7173C5.63824 10.9248 7.04238 6.88769 10.1014 4.7183C15.0797 1.18786 23.2645 3.30097 26.5533 4.37277C26.506 4.41933 26.4569 4.46302 26.41 4.51034C21.0132 9.9608 21.1412 19.273 21.1544 19.8421C21.154 20.0617 21.1723 20.3727 21.1977 20.8004C21.2905 22.3666 21.4633 25.2816 21.0017 28.5829C20.5726 31.6505 21.5182 34.6531 23.5956 36.8207C23.8107 37.045 24.0352 37.2557 24.2672 37.454C23.3423 38.4443 21.3327 40.6342 19.1936 43.2075ZM24.9608 35.5124C23.2864 33.7655 22.526 31.3353 22.8742 28.8447C23.3618 25.3573 23.1817 22.3202 23.0851 20.6885C23.0716 20.4602 23.0596 20.2601 23.0525 20.1022C23.8409 19.4033 27.4945 17.4455 30.1 18.0425C31.2892 18.3149 32.0135 19.1245 32.3147 20.5172C33.8738 27.7272 32.5212 30.7324 31.4344 33.1472C31.2103 33.6447 30.9987 34.1149 30.8179 34.6016L30.6779 34.9776C30.3233 35.9285 29.9934 36.8125 29.7889 37.6521C28.009 37.6466 26.2774 36.8864 24.9608 35.5124ZM25.234 45.2361C24.7143 45.1063 24.2468 44.8807 23.9726 44.6937C24.2016 44.5858 24.6093 44.4393 25.3163 44.2937C28.7382 43.5891 29.2665 43.0921 30.4205 41.6268C30.6852 41.291 30.9851 40.9101 31.4004 40.4462C31.4005 40.4459 31.4007 40.4458 31.4008 40.4456C32.0196 39.753 32.3025 39.8704 32.8156 40.0833C33.2315 40.2554 33.6365 40.7766 33.8008 41.3503C33.8785 41.6212 33.9658 42.1355 33.6802 42.5355C31.2695 45.9108 27.7568 45.8674 25.234 45.2361ZM43.1415 61.9002C38.9555 62.7971 37.4734 60.6613 36.4967 58.2196C35.8663 56.6432 35.5565 49.5348 35.7763 41.685C35.7792 41.5805 35.7643 41.4796 35.7355 41.3848C35.7105 41.2017 35.672 41.0165 35.6186 40.8301C35.2915 39.6879 34.4951 38.7325 33.5394 38.3364C33.1598 38.1791 32.4628 37.8905 31.6253 38.1047C31.804 37.3688 32.1138 36.5381 32.4494 35.6383L32.5904 35.2597C32.749 34.833 32.9479 34.391 33.1584 33.9232C34.2957 31.3964 35.8534 27.9358 34.1629 20.1175C33.5296 17.1893 31.4151 15.7593 28.2096 16.0914C26.2877 16.2902 24.5297 17.0656 23.6528 17.5102C23.4643 17.6058 23.2918 17.698 23.1307 17.788C23.3754 14.8374 24.3002 9.32354 27.7592 5.83496C29.9369 3.63858 32.8374 2.55389 36.3714 2.61229C43.3344 2.72635 47.7996 6.29972 50.3195 9.27743C52.4908 11.8435 53.6667 14.4282 54.136 15.8221C50.6071 15.4634 48.207 16.1601 46.9902 17.8995C44.3433 21.6831 48.4383 29.027 50.4064 32.5564C50.7673 33.2033 51.0788 33.7623 51.1768 33.9998C51.8177 35.553 52.6474 36.5899 53.2532 37.347C53.4389 37.5789 53.6191 37.8039 53.756 38.0003C52.6873 38.3085 50.7674 39.0204 50.9423 42.579C50.8012 44.3648 49.7977 52.725 49.288 55.6788C48.6152 59.581 47.1792 61.0346 43.1415 61.9002ZM60.6143 41.9048C59.5214 42.4122 57.6924 42.7928 55.9548 42.8744C54.0357 42.9643 53.0589 42.6594 52.8291 42.472C52.7211 40.2543 53.5467 40.0226 54.4202 39.7773C54.5575 39.7386 54.6915 39.7011 54.8207 39.6559C54.9011 39.7213 54.9891 39.7862 55.0854 39.8498C56.6279 40.8679 59.3791 40.9777 63.263 40.1761C63.2772 40.173 63.2915 40.1703 63.3056 40.1674C62.7818 40.6572 61.8854 41.3146 60.6143 41.9048Z"/>
</mask>
<path d="M62.8806 38.3245L64.4975 46.1594L64.4991 46.159L62.8806 38.3245ZM56.0636 38.2174L49.3757 33.8273L45.2154 40.1652L51.3208 44.6598L56.0636 38.2174ZM64.2014 19.9665L56.4557 17.9654L56.4556 17.9658L64.2014 19.9665ZM65.4073 12.1186L57.4083 11.9947L57.4083 11.9958L65.4073 12.1186ZM64.1787 6.81667L70.4787 1.88622L70.4787 1.88621L64.1787 6.81667ZM49.585 0.00150562L49.4952 8.001L49.5002 8.00106L49.585 0.00150562ZM41.1494 1.33132L39.2187 9.09484L41.8676 9.7536L44.3667 8.65586L41.1494 1.33132ZM36.4026 0.721701L36.5339 -7.27722L36.5319 -7.27725L36.4026 0.721701ZM28.2686 2.96389L25.4788 10.4617L29.3567 11.9046L32.7753 9.57372L28.2686 2.96389ZM21.6585 1.2309L22.9307 -6.66729L22.9303 -6.66735L21.6585 1.2309ZM9.01154 3.17322L4.38693 -3.35465L4.38679 -3.35455L9.01154 3.17322ZM4.03949 16.8117L12.0295 16.4122L12.0295 16.4122L4.03949 16.8117ZM7.35242 32.128L-0.299099 34.4635L-0.299057 34.4636L7.35242 32.128ZM15.6926 46.3576L18.2244 38.7688L18.2236 38.7686L15.6926 46.3576ZM20.6475 44.4164L26.7978 49.5325L26.7997 49.5302L20.6475 44.4164ZM25.8457 38.5344L29.6297 31.4859L24.2199 28.5816L20.0155 33.0564L25.8457 38.5344ZM29.5856 39.5402L37.5679 39.0081L37.0833 31.7379L29.7995 31.5431L29.5856 39.5402ZM29.5944 39.6424L35.7107 44.7991L37.8592 42.2508L37.5627 38.931L29.5944 39.6424ZM28.9352 40.457L35.2195 45.4075L35.2196 45.4073L28.9352 40.457ZM24.9349 42.4418L23.3212 34.6062L23.3187 34.6067L24.9349 42.4418ZM21.8778 44.6057L29.8761 44.7722L29.8761 44.7719L21.8778 44.6057ZM24.7753 47.0704L26.718 39.3099L26.7137 39.3088L24.7753 47.0704ZM27.7877 47.4611V55.4611H27.7883L27.7877 47.4611ZM33.8211 45.2083L41.8208 45.2759L41.9747 27.0512L28.4558 39.2742L33.8211 45.2083ZM34.7411 58.9218L27.313 61.8921L27.3134 61.8933L34.7411 58.9218ZM41.3255 64V56H41.325L41.3255 64ZM43.5378 63.749L45.2144 71.5713L45.2151 71.5712L43.5378 63.749ZM51.1512 56L43.2678 54.6392L43.2675 54.6407L51.1512 56ZM52.656 44.4472L55.0378 36.81L45.7541 33.9147L44.7029 43.5824L52.656 44.4472ZM55.3331 44.7779V36.7779H55.3319L55.3331 44.7779ZM61.4105 43.6197L64.7787 50.8761L64.78 50.8755L61.4105 43.6197ZM54.0668 20.4202L61.9737 21.6376L61.9737 21.6374L54.0668 20.4202ZM53.7298 23.5567L61.7256 23.816L61.7257 23.812L53.7298 23.5567ZM53.9783 27.1035L61.9211 26.149L61.9211 26.1487L53.9783 27.1035ZM53.4249 34.3071L46.4538 38.232L54.066 51.7522L60.6652 37.7097L53.4249 34.3071ZM52.9247 33.2787L45.5289 36.3287L45.5289 36.3288L52.9247 33.2787ZM52.0578 31.6355L59.0448 27.7392L59.0448 27.7392L52.0578 31.6355ZM48.5395 18.9833L41.9848 14.3967L41.9842 14.3976L48.5395 18.9833ZM62.6896 7.9819L68.9899 3.05181L68.9897 3.05144L62.6896 7.9819ZM54.9569 36.4519L48.6706 41.3999L55.6535 50.2716L61.7089 40.7426L54.9569 36.4519ZM54.7295 36.1655L48.4755 41.1542L48.48 41.1598L48.4845 41.1655L54.7295 36.1655ZM54.6347 36.0469L47.7914 31.9034L44.8993 36.6798L48.3855 41.0416L54.6347 36.0469ZM55.8556 26.8779L63.7985 25.9238L63.7984 25.9226L55.8556 26.8779ZM55.6196 23.6175L63.6154 23.8775L63.6156 23.8717L55.6196 23.6175ZM55.9356 20.708L63.8423 21.9261L63.8425 21.9251L55.9356 20.708ZM56.2312 17.1066L48.4735 15.1526L48.196 16.2543L48.2362 17.3896L56.2312 17.1066ZM56.2626 16.5992L64.2275 15.8508L64.2273 15.8488L56.2626 16.5992ZM51.6508 7.92471L57.7192 2.71181L57.7189 2.71147L51.6508 7.92471ZM44.3199 2.41343L42.6965 -5.42011L18.2371 -0.35104L41.0904 9.73261L44.3199 2.41343ZM16.2908 44.5642L13.7593 52.1531L13.762 52.154L16.2908 44.5642ZM9.16079 31.5761L16.8123 29.2406L16.8123 29.2406L9.16079 31.5761ZM5.9278 16.7173L-2.06222 17.1167L-2.06221 17.1169L5.9278 16.7173ZM10.1014 4.7183L5.47361 -1.80731L5.47358 -1.80729L10.1014 4.7183ZM26.5533 4.37277L32.1643 10.0751L41.5453 0.844441L29.0322 -3.23351L26.5533 4.37277ZM26.41 4.51034L20.7259 -1.11912L20.7252 -1.11844L26.41 4.51034ZM21.1544 19.8421L29.1544 19.8587L29.1546 19.7577L29.1523 19.6567L21.1544 19.8421ZM21.1977 20.8004L13.2117 21.2734L13.2117 21.2738L21.1977 20.8004ZM21.0017 28.5829L28.9246 29.6912L28.9246 29.6907L21.0017 28.5829ZM23.5956 36.8207L17.82 42.3562L17.821 42.3572L23.5956 36.8207ZM24.2672 37.454L30.1141 42.9141L35.8195 36.8045L29.4653 31.3729L24.2672 37.454ZM22.8742 28.8447L30.7972 29.9525L30.7972 29.9523L22.8742 28.8447ZM23.0851 20.6885L15.099 21.1608L15.0991 21.1614L23.0851 20.6885ZM23.0525 20.1022L17.7456 14.1158L14.8884 16.6487L15.0606 20.4631L23.0525 20.1022ZM30.1 18.0425L28.3132 25.8404L28.3136 25.8405L30.1 18.0425ZM32.3147 20.5172L40.134 18.8265L40.1339 18.826L32.3147 20.5172ZM31.4344 33.1472L38.7289 36.432L38.7296 36.4305L31.4344 33.1472ZM30.8179 34.6016L38.3151 37.393L38.317 37.388L30.8179 34.6016ZM30.6779 34.9776L38.1736 37.7731L38.1751 37.769L30.6779 34.9776ZM29.7889 37.6521L29.7644 45.652L36.0697 45.6714L37.5617 39.5451L29.7889 37.6521ZM23.9726 44.6937L20.5646 37.4559L7.9028 43.4178L19.4652 51.303L23.9726 44.6937ZM25.3163 44.2937L23.703 36.4581L23.7025 36.4582L25.3163 44.2937ZM30.4205 41.6268L24.1375 36.6747L24.1357 36.677L30.4205 41.6268ZM31.4004 40.4462L37.3605 45.7826L38.0761 44.9834L38.5558 44.024L31.4004 40.4462ZM31.4008 40.4456L37.0625 46.0977L37.2192 45.9408L37.3669 45.7754L31.4008 40.4456ZM32.8156 40.0833L29.7509 47.473L29.7559 47.475L32.8156 40.0833ZM33.8008 41.3503L26.1099 43.5526L26.1105 43.5549L33.8008 41.3503ZM33.6802 42.5355L40.1902 47.1852L40.1907 47.1845L33.6802 42.5355ZM36.4967 58.2196L29.0686 61.19L29.0689 61.1908L36.4967 58.2196ZM35.7763 41.685L43.7732 41.9089L43.7733 41.9055L35.7763 41.685ZM35.7355 41.3848L27.8092 42.4684L27.8957 43.1009L28.0814 43.7117L35.7355 41.3848ZM35.6186 40.8301L27.9276 43.0322L27.9278 43.0328L35.6186 40.8301ZM33.5394 38.3364L36.6024 30.946L36.6015 30.9456L33.5394 38.3364ZM31.6253 38.1047L23.8513 36.2168L20.7097 49.1538L33.6075 45.8552L31.6253 38.1047ZM32.4494 35.6383L39.9448 38.4345L39.947 38.4288L32.4494 35.6383ZM32.5904 35.2597L40.0879 38.0502L40.0887 38.0479L32.5904 35.2597ZM33.1584 33.9232L25.8634 30.6396L25.8632 30.6399L33.1584 33.9232ZM34.1629 20.1175L41.9822 18.4268L41.9821 18.4265L34.1629 20.1175ZM28.2096 16.0914L29.033 24.0489L29.0338 24.0488L28.2096 16.0914ZM23.6528 17.5102L27.2695 24.646L27.2705 24.6455L23.6528 17.5102ZM23.1307 17.788L15.1581 17.1269L13.9169 32.0955L27.0309 24.7728L23.1307 17.788ZM27.7592 5.83496L33.4401 11.4677L33.4402 11.4676L27.7592 5.83496ZM36.3714 2.61229L36.2392 10.6112L36.2403 10.6112L36.3714 2.61229ZM50.3195 9.27743L56.4265 4.10976L56.4262 4.1095L50.3195 9.27743ZM54.136 15.8221L53.3269 23.7811L65.6795 25.0368L61.7178 13.2696L54.136 15.8221ZM46.9902 17.8995L40.435 13.3136L40.435 13.3137L46.9902 17.8995ZM50.4064 32.5564L43.4193 36.4526L43.4198 36.4535L50.4064 32.5564ZM51.1768 33.9998L43.7813 37.0505L43.7815 37.0511L51.1768 33.9998ZM53.2532 37.347L47.007 42.3455L47.0078 42.3465L53.2532 37.347ZM53.756 38.0003L55.9728 45.687L66.7097 42.5906L60.3182 33.4245L53.756 38.0003ZM50.9423 42.579L58.9174 43.209L58.9578 42.6982L58.9327 42.1863L50.9423 42.579ZM49.288 55.6788L41.4045 54.3185L41.4044 54.3194L49.288 55.6788ZM55.9548 42.8744L56.3294 50.8656L56.3302 50.8656L55.9548 42.8744ZM52.8291 42.472L44.8386 42.8611L45.0118 46.4189L47.7719 48.6707L52.8291 42.472ZM54.4202 39.7773L56.5828 47.4794L56.5899 47.4775L54.4202 39.7773ZM54.8207 39.6559L59.8681 33.4492L56.3995 30.6285L52.1795 32.1045L54.8207 39.6559ZM55.0854 39.8498L59.4923 33.1731L59.4914 33.1724L55.0854 39.8498ZM63.263 40.1761L64.8801 48.0109L64.904 48.006L64.9278 48.0009L63.263 40.1761ZM63.3056 40.1674L68.7697 46.0106L89.465 26.6579L61.7043 32.3293L63.3056 40.1674ZM73.2591 36.6543C72.2471 33.5939 69.8663 31.4852 67.062 30.6372C64.7582 29.9406 62.6133 30.2107 61.262 30.4899L64.4991 46.159C64.7037 46.1168 63.8049 46.3678 62.4309 45.9523C61.6513 45.7166 60.6975 45.256 59.8171 44.4202C58.9246 43.5731 58.3692 42.588 58.0682 41.6777L73.2591 36.6543ZM61.2636 30.4896C60.375 30.673 59.733 30.757 59.2969 30.7923C59.0807 30.8098 58.9228 30.8147 58.8171 30.815C58.7113 30.8153 58.6632 30.8108 58.6654 30.811C58.6656 30.8111 58.898 30.8316 59.284 30.9629C59.6786 31.0971 60.219 31.3424 60.8064 31.7749L51.3208 44.6598C54.6997 47.1473 59.2854 47.235 64.4975 46.1593L61.2636 30.4896ZM62.7514 42.6074C66.8066 36.4298 70.127 29.0143 71.9472 21.9671L56.4556 17.9658C55.089 23.2568 52.5019 29.0649 49.3757 33.8273L62.7514 42.6074ZM71.9471 21.9675C72.8075 18.6373 73.3599 15.2694 73.4064 12.2415L57.4083 11.9958C57.3868 13.3916 57.1053 15.4512 56.4557 17.9654L71.9471 21.9675ZM73.4064 12.2426C73.4531 9.22471 73.0397 5.1586 70.4787 1.88622L57.8786 11.7471C57.6319 11.4318 57.4905 11.1606 57.4162 10.992C57.3429 10.8257 57.3263 10.7407 57.3335 10.7717C57.3404 10.8018 57.3637 10.9148 57.3827 11.1282C57.4015 11.3402 57.414 11.6262 57.4083 11.9947L73.4064 12.2426ZM70.4787 1.88621C65.387 -4.61988 57.9455 -7.9103 49.6698 -7.99804L49.5002 8.00106C53.4421 8.04285 56.0933 9.46585 57.8786 11.7471L70.4787 1.88621ZM49.6749 -7.99799C44.3737 -8.05754 39.6945 -6.76736 37.9321 -5.99322L44.3667 8.65586C44.0525 8.7939 44.004 8.78555 44.3806 8.67713C44.6651 8.59522 45.0909 8.48608 45.6242 8.37907C46.7086 8.16148 48.0758 7.98506 49.4952 8.001L49.6749 -7.99799ZM43.0801 -6.43221C41.0479 -6.93762 38.8651 -7.23896 36.5339 -7.27722L36.2713 8.72062C37.3782 8.73879 38.3538 8.87976 39.2187 9.09484L43.0801 -6.43221ZM36.5319 -7.27725C31.9803 -7.35083 27.578 -6.24783 23.7619 -3.64593L32.7753 9.57372C33.4717 9.09886 34.5195 8.6923 36.2733 8.72066L36.5319 -7.27725ZM31.0583 -4.53392C29.8003 -5.00202 26.7303 -6.05526 22.9307 -6.66729L20.3863 9.1291C22.7811 9.51485 24.7768 10.2005 25.4788 10.4617L31.0583 -4.53392ZM22.9303 -6.66735C16.45 -7.71087 9.7811 -7.1761 4.38693 -3.35465L13.6361 9.70108C14.3154 9.21987 16.1568 8.44803 20.3866 9.12916L22.9303 -6.66735ZM4.38679 -3.35455C-2.39142 1.44763 -4.34322 9.35773 -3.95053 17.2112L12.0295 16.4122C11.7739 11.3004 13.1676 10.033 13.6363 9.70098L4.38679 -3.35455ZM-3.95053 17.2112C-3.79414 20.3391 -2.3435 27.7655 -0.299099 34.4635L15.0039 29.7926C14.1063 26.8517 13.3635 23.8105 12.8356 21.2579C12.5724 19.9854 12.37 18.8701 12.2308 17.9822C12.1612 17.5386 12.1106 17.1723 12.0765 16.8857C12.0595 16.7435 12.0478 16.6306 12.04 16.5451C12.0361 16.503 12.0335 16.4705 12.0318 16.447C12.0301 16.4233 12.0295 16.4121 12.0295 16.4122L-3.95053 17.2112ZM-0.299057 34.4636C1.07934 38.9793 2.64238 42.9525 4.48143 46.0902C6.16823 48.9682 8.87503 52.5171 13.1616 53.9467L18.2236 38.7686C19.5575 39.2134 19.385 39.8761 18.2852 37.9997C17.3377 36.3832 16.207 33.7339 15.0039 29.7924L-0.299057 34.4636ZM13.1608 53.9464C14.1937 54.2911 15.4501 54.5536 16.876 54.5536V38.5536C17.4235 38.5536 17.8825 38.6548 18.2244 38.7688L13.1608 53.9464ZM16.876 54.5536C20.7504 54.5536 24.195 52.6613 26.7978 49.5325L14.4973 39.3003C14.3681 39.4556 14.505 39.2408 14.9872 38.9924C15.5022 38.7271 16.1613 38.5536 16.876 38.5536V54.5536ZM26.7997 49.5302C28.9383 46.9573 30.9485 44.7866 31.676 44.0124L20.0155 33.0564C19.1721 33.954 16.9209 36.3845 14.4953 39.3026L26.7997 49.5302ZM22.0617 45.5829C24.2839 46.7759 26.777 47.4679 29.3717 47.5373L29.7995 31.5431C29.7856 31.5427 29.7289 31.5391 29.6297 31.4859L22.0617 45.5829ZM21.6034 40.0723C21.6105 40.1793 21.6182 40.2665 21.622 40.3092C21.6239 40.3304 21.6258 40.3504 21.6263 40.3556C21.6271 40.3648 21.6268 40.3607 21.6261 40.3539L37.5627 38.931C37.5606 38.9072 37.5587 38.886 37.5579 38.8783C37.5568 38.8664 37.5571 38.8694 37.5575 38.8735C37.558 38.8792 37.5594 38.895 37.5612 38.9167C37.563 38.9387 37.5654 38.97 37.5679 39.0081L21.6034 40.0723ZM23.4782 34.4858C23.1234 34.9066 22.8373 35.2698 22.6508 35.5066L35.2196 45.4073C35.399 45.1797 35.5422 44.999 35.7107 44.7991L23.4782 34.4858ZM22.6509 35.5065C22.5229 35.669 22.4848 35.7166 22.4621 35.744C22.4484 35.7605 22.5156 35.6776 22.6386 35.5528C22.7717 35.4176 22.9622 35.241 23.2078 35.0549C23.4557 34.8671 23.7034 34.7122 23.9358 34.5889C24.3673 34.3598 24.6381 34.2983 24.4848 34.3416C24.3292 34.3856 23.9998 34.4664 23.3212 34.6062L26.5485 50.2773C27.8267 50.0141 29.7381 49.6234 31.4381 48.7209C33.6625 47.5401 34.8848 45.8324 35.2195 45.4075L22.6509 35.5065ZM23.3187 34.6067C22.9965 34.6732 21.2578 34.9944 19.5419 35.8489C17.9858 36.6239 13.9897 39.1393 13.8795 44.4395L29.8761 44.7719C29.841 46.4606 29.1566 47.8761 28.3368 48.8362C27.6236 49.6716 26.9149 50.0514 26.6743 50.1712C26.2721 50.3716 26.0459 50.381 26.551 50.2768L23.3187 34.6067ZM13.8796 44.4392C13.7643 49.9732 18.0273 52.6962 19.2208 53.3807C20.8676 54.3252 22.4422 54.7334 22.8369 54.832L26.7137 39.3088C26.8083 39.3324 26.9167 39.3498 27.181 39.5014C27.3241 39.5835 27.8933 39.9188 28.4877 40.652C29.1634 41.4854 29.9148 42.9143 29.8761 44.7722L13.8796 44.4392ZM22.8326 54.8309C24.4494 55.2357 26.1099 55.4611 27.7877 55.4611V39.4611C27.545 39.4611 27.1917 39.4284 26.718 39.3099L22.8326 54.8309ZM27.7883 55.4611C31.9881 55.4609 35.9879 54.0344 39.1864 51.1424L28.4558 39.2742C28.3703 39.3515 28.3134 39.3793 28.2658 39.3971C28.2133 39.4167 28.0699 39.4611 27.7872 39.4611L27.7883 55.4611ZM25.8214 45.1408C25.7951 48.2497 25.8455 51.4213 26.0062 54.1157C26.0862 55.4574 26.1988 56.7745 26.3609 57.9529C26.4994 58.96 26.7497 60.4836 27.313 61.8921L42.1692 55.9514C42.3723 56.4593 42.3211 56.5683 42.2117 55.7727C42.1258 55.1485 42.0441 54.2748 41.9778 53.1633C41.8459 50.9512 41.7964 48.1668 41.8208 45.2759L25.8214 45.1408ZM27.3134 61.8933C27.6048 62.6217 28.5633 65.1627 30.6726 67.4444C33.0386 70.0039 36.6046 72.0003 41.3261 72L41.325 56C41.2869 56 41.3262 55.9966 41.4253 56.0177C41.5259 56.0391 41.6563 56.079 41.8016 56.1459C42.1075 56.2866 42.3159 56.4691 42.4216 56.5835C42.5105 56.6796 42.5083 56.7064 42.4457 56.5883C42.3781 56.4609 42.3155 56.3171 42.1687 55.9503L27.3134 61.8933ZM41.3255 72C42.6142 72 43.9134 71.8502 45.2144 71.5713L41.8613 55.9266C41.5444 55.9945 41.3726 56 41.3255 56V72ZM45.2151 71.5712C48.3801 70.8925 51.7942 69.6235 54.5336 66.8354C57.3043 64.0153 58.4823 60.5639 59.0348 57.3594L43.2675 54.6407C43.0217 56.0662 42.7688 55.9798 43.1204 55.622C43.4406 55.2961 43.4472 55.5865 41.8606 55.9268L45.2151 71.5712ZM59.0346 57.3609C59.5079 54.6189 60.2632 48.4935 60.6091 45.312L44.7029 43.5824C44.3596 46.7398 43.6487 52.4324 43.2678 54.6392L59.0346 57.3609ZM50.2743 52.0844C52.0634 52.6424 53.8872 52.7781 55.3343 52.7779L55.3319 36.7779C55.0906 36.7779 54.9272 36.765 54.8428 36.7549C54.8034 36.7501 54.7984 36.748 54.8245 36.7533C54.8492 36.7583 54.9234 36.7743 55.0378 36.81L50.2743 52.0844ZM55.3331 52.7779C58.2492 52.7779 61.9114 52.207 64.7787 50.8761L58.0422 36.3634C58.0679 36.3515 57.7634 36.4797 57.1071 36.6036C56.4978 36.7186 55.8578 36.7779 55.3331 36.7779V52.7779ZM64.78 50.8755C66.0681 50.2773 67.9835 49.2135 69.6493 47.7609C70.4665 47.0483 71.6221 45.9015 72.4936 44.3107C73.4062 42.645 74.3166 39.8535 73.2595 36.6553L58.0679 41.6767C57.2917 39.3284 58.0255 37.4189 58.4615 36.623C58.8565 35.9021 59.2355 35.613 59.1338 35.7017C58.9617 35.8517 58.4696 36.1649 58.0409 36.364L64.78 50.8755ZM46.349 17.6134C46.3437 17.9304 46.3034 18.2713 46.16 19.2029L61.9737 21.6374C62.1033 20.7955 62.3206 19.4375 62.3468 17.8831L46.349 17.6134ZM46.16 19.2028C46.0149 20.1455 45.7893 21.5659 45.7339 23.3013L61.7257 23.812C61.7467 23.1536 61.8252 22.6021 61.9737 21.6376L46.16 19.2028ZM45.734 23.2974C45.673 25.1778 45.9088 27.0046 46.0354 28.0583L61.9211 26.1487C61.7662 24.8604 61.711 24.2652 61.7256 23.816L45.734 23.2974ZM46.0354 28.058C46.1891 29.337 46.2487 29.9543 46.2346 30.4741C46.2288 30.6869 46.21 30.8018 46.1994 30.852C46.1904 30.8948 46.1848 30.9041 46.1846 30.9045L60.6652 37.7097C62.9126 32.9277 62.1686 28.2082 61.9211 26.149L46.0354 28.058ZM60.396 30.3823C60.3628 30.3234 60.3396 30.2752 60.3204 30.2287L45.5289 36.3288C45.8203 37.0355 46.136 37.6674 46.4538 38.232L60.396 30.3823ZM60.3204 30.2287C59.9513 29.3337 59.3284 28.2478 59.0448 27.7392L45.0707 35.5318C45.293 35.9305 45.4365 36.1883 45.543 36.3873C45.593 36.4807 45.615 36.5245 45.6195 36.5336C45.6279 36.5506 45.5878 36.4717 45.5289 36.3287L60.3204 30.2287ZM59.0448 27.7392C58.1898 26.206 57.1108 24.244 56.4314 22.4404C56.0883 21.5296 55.9991 21.0443 55.988 20.9333C55.9636 20.6907 56.1866 22.0082 55.0948 23.5689L41.9842 14.3976C39.9083 17.3651 39.8738 20.5994 40.0681 22.5328C40.2756 24.5979 40.8811 26.5478 41.4584 28.0804C42.6197 31.1634 44.2839 34.1208 45.0707 35.5318L59.0448 27.7392ZM55.0941 23.5698C54.6848 24.1548 54.1939 24.628 53.6785 24.9797C53.1732 25.3245 52.7352 25.4912 52.4717 25.5669C52.0062 25.7007 52.147 25.5365 53.3628 25.6874L55.333 9.80913C50.5632 9.21729 45.1424 9.88428 41.9848 14.3967L55.0941 23.5698ZM49.6445 9.89439C52.9941 9.96837 54.9631 11.0897 56.3896 12.9123L68.9897 3.05144C64.285 -2.96003 57.5951 -5.93391 49.9978 -6.10171L49.6445 9.89439ZM56.3893 12.912C55.9815 12.3909 55.7638 11.9329 55.6556 11.6654C55.5455 11.3929 55.5079 11.2162 55.5011 11.1827C55.4918 11.137 55.5368 11.3547 55.5282 11.9157C55.5109 13.0342 55.2947 14.7742 54.7452 17.0176C53.6517 21.4819 51.4622 27.0353 48.2049 32.1612L61.7089 40.7426C65.9464 34.0743 68.7988 26.895 70.2858 20.824C71.0265 17.7998 71.4852 14.8214 71.5263 12.163C71.5468 10.8355 71.4669 9.40003 71.1784 7.98549C70.908 6.65967 70.3411 4.77855 68.9899 3.05181L56.3893 12.912ZM61.2432 31.504C61.1551 31.392 61.0659 31.2797 60.9746 31.1656L48.4845 41.1655C48.5491 41.2462 48.6107 41.3238 48.6706 41.3999L61.2432 31.504ZM60.9836 31.1769C60.9496 31.1343 60.9094 31.084 60.884 31.0522L48.3855 41.0416C48.4241 41.0899 48.4472 41.1188 48.4755 41.1542L60.9836 31.1769ZM61.478 40.1905C65.0045 34.3664 64.1147 28.5558 63.7985 25.9238L47.9127 27.832C48.2707 30.8117 48.1384 31.3303 47.7914 31.9034L61.478 40.1905ZM63.7984 25.9226C63.6428 24.6291 63.6057 24.1749 63.6154 23.8775L47.6238 23.3574C47.5671 25.103 47.7915 26.8238 47.9129 27.8332L63.7984 25.9226ZM63.6156 23.8717C63.6327 23.3341 63.7 22.8497 63.8423 21.9261L48.0288 19.49C47.8945 20.3623 47.6754 21.7348 47.6237 23.3633L63.6156 23.8717ZM63.8425 21.9251C64.0107 20.8319 64.3036 19.011 64.2262 16.8236L48.2362 17.3896C48.2543 17.9019 48.2011 18.3708 48.0287 19.491L63.8425 21.9251ZM63.9889 19.0606C64.2693 17.9473 64.3222 16.8589 64.2275 15.8508L48.2977 17.3476C48.2403 16.7367 48.2644 15.9829 48.4735 15.1526L63.9889 19.0606ZM64.2273 15.8488C64.0306 13.7609 63.1292 11.4356 62.2378 9.59868C61.2194 7.50028 59.7346 5.058 57.7192 2.71181L45.5824 13.1376C46.5791 14.2979 47.3392 15.5456 47.8433 16.5843C48.0929 17.0986 48.2509 17.5025 48.3352 17.752C48.4573 18.1134 48.352 17.9241 48.2979 17.3496L64.2273 15.8488ZM57.7189 2.71147C55.5083 0.138345 52.1868 -2.8596 47.5494 -4.90576L41.0904 9.73261C43.0143 10.5815 44.4984 11.8759 45.5827 13.138L57.7189 2.71147ZM45.9434 10.247C46.9283 10.0428 48.2364 9.86305 49.6432 9.89436L49.9992 -6.10168C47.0851 -6.16654 44.5337 -5.80088 42.6965 -5.42011L45.9434 10.247ZM13.043 38.0919C12.9996 38.144 13.7073 37.2727 15.3246 36.8598C16.121 36.6565 16.9105 36.6273 17.628 36.7132C18.3142 36.7954 18.8334 36.9789 18.8197 36.9744L13.762 52.154C14.3868 52.3621 16.5322 53.0647 19.2824 52.3626C21.8867 51.6978 23.874 50.0909 25.3443 48.3231L13.043 38.0919ZM18.8224 36.9753C20.1217 37.4087 20.6555 38.0972 20.5232 37.9489C20.4618 37.8801 20.1875 37.5378 19.7579 36.7552C18.9022 35.1966 17.8689 32.7023 16.8123 29.2406L1.50928 33.9115C2.74402 37.9568 4.15578 41.583 5.73233 44.4548C6.51882 45.8875 7.45741 47.3379 8.58488 48.6015C9.64144 49.7856 11.3401 51.346 13.7593 52.1531L18.8224 36.9753ZM16.8123 29.2406C15.9066 26.2732 15.1799 23.2639 14.6717 20.7887C14.4184 19.555 14.2263 18.4878 14.096 17.6576C14.0308 17.2423 13.9844 16.9074 13.9539 16.6549C13.9208 16.3813 13.9161 16.2843 13.9178 16.3176L-2.06221 17.1169C-1.92384 19.8832 -0.56221 27.1249 1.50929 33.9116L16.8123 29.2406ZM13.9178 16.3178C13.807 14.101 14.054 12.7373 14.3149 11.9873C14.4381 11.633 14.5526 11.4484 14.6104 11.368C14.6629 11.2951 14.6982 11.2659 14.7292 11.2439L5.47358 -1.80729C-0.853069 2.67943 -2.40965 10.1667 -2.06222 17.1167L13.9178 16.3178ZM14.7292 11.2439C14.9843 11.063 16.0251 10.6296 18.3884 10.7992C20.5575 10.9548 22.7344 11.5423 24.0745 11.979L29.0322 -3.23351C27.0834 -3.86859 23.5235 -4.87352 19.5334 -5.1598C15.7375 -5.43214 10.1967 -5.1568 5.47361 -1.80731L14.7292 11.2439ZM20.9424 -1.3296C20.977 -1.36366 21.0026 -1.388 21.0106 -1.3956C21.0135 -1.3984 21.0218 -1.4062 20.997 -1.38288C20.981 -1.36778 20.9441 -1.333 20.9008 -1.29142C20.8562 -1.24847 20.7956 -1.18954 20.7259 -1.11912L32.0941 10.1398C32.0478 10.1866 32.011 10.2223 31.9902 10.2423C31.9708 10.2609 31.9579 10.273 31.9659 10.2654C31.9676 10.2638 31.9694 10.2622 31.9728 10.259C31.9758 10.2562 31.9802 10.252 31.9849 10.2476C31.9942 10.2388 32.0083 10.2255 32.0245 10.2101C32.0565 10.1797 32.106 10.1325 32.1643 10.0751L20.9424 -1.3296ZM20.7252 -1.11844C16.4725 3.17654 14.7067 8.60188 13.9212 12.3771C13.1105 16.2736 13.1422 19.4079 13.1566 20.0276L29.1523 19.6567C29.1535 19.7072 29.1146 17.9009 29.5857 15.6363C30.0821 13.2506 30.9507 11.2946 32.0948 10.1391L20.7252 -1.11844ZM13.1545 19.8255C13.1534 20.3519 13.1934 20.9642 13.2117 21.2734L29.1837 20.3275C29.1703 20.1009 29.1622 19.9627 29.157 19.8555C29.1546 19.8067 29.1538 19.7836 29.1537 19.7784C29.1535 19.7719 29.1545 19.8025 29.1544 19.8587L13.1545 19.8255ZM13.2117 21.2738C13.3017 22.7917 13.4218 25.0217 13.0788 27.4751L28.9246 29.6907C29.5047 25.5416 29.2793 21.9414 29.1837 20.3271L13.2117 21.2738ZM13.0788 27.4746C12.3228 32.8797 13.9859 38.3558 17.82 42.3562L29.3713 31.2852C29.0505 30.9505 28.8224 30.4214 28.9246 29.6912L13.0788 27.4746ZM17.821 42.3572C18.229 42.7828 18.6472 43.1745 19.069 43.535L29.4653 31.3729C29.4232 31.3369 29.3924 31.3072 29.3703 31.2842L17.821 42.3572ZM18.4202 31.9939C17.4374 33.0463 15.3149 35.3587 13.0415 38.0936L25.3457 48.3214C27.3505 45.9096 29.2473 43.8424 30.1141 42.9141L18.4202 31.9939ZM30.7362 29.9767C30.7505 29.9915 30.7643 30.0096 30.7755 30.0287C30.7865 30.0474 30.7918 30.0616 30.7939 30.0683C30.796 30.0748 30.7937 30.0704 30.7923 30.053C30.791 30.0358 30.7902 30.0025 30.7972 29.9525L14.9513 27.7368C14.2793 32.543 15.7394 37.453 19.1854 41.0481L30.7362 29.9767ZM30.7972 29.9523C31.4027 25.6211 31.171 21.9035 31.0711 20.2156L15.0991 21.1614C15.1924 22.7368 15.3208 25.0936 14.9513 27.7371L30.7972 29.9523ZM31.0711 20.2162C31.056 19.9607 31.0483 19.8294 31.0443 19.7414L15.0606 20.4631C15.0709 20.6908 15.0871 20.9598 15.099 21.1608L31.0711 20.2162ZM28.3594 26.0886C28.2726 26.1656 28.199 26.2265 28.1439 26.2708C28.0879 26.3157 28.0416 26.351 28.0072 26.3766C27.9405 26.4262 27.8978 26.4547 27.8857 26.4627C27.8639 26.4771 27.8957 26.4552 27.9833 26.4068C28.0667 26.3609 28.1771 26.304 28.3071 26.2437C28.4367 26.1836 28.5723 26.1264 28.7066 26.076C28.8417 26.0253 28.9604 25.9871 29.0579 25.9602C29.1569 25.9329 29.2117 25.9235 29.2221 25.9219C29.2346 25.92 29.1674 25.9317 29.0304 25.9308C28.8942 25.9299 28.6445 25.9163 28.3132 25.8404L31.8868 10.2446C28.262 9.41401 24.8785 10.4228 23.0831 11.0968C21.2569 11.7824 19.1507 12.8702 17.7456 14.1158L28.3594 26.0886ZM28.3136 25.8405C27.4889 25.6516 26.4404 25.1574 25.5789 24.1946C24.783 23.3052 24.5517 22.4679 24.4956 22.2085L40.1339 18.826C39.7766 17.1738 39.0325 15.2353 37.5019 13.5249C35.9055 11.7411 33.9003 10.7059 31.8864 10.2445L28.3136 25.8405ZM24.4955 22.208C25.1253 25.121 25.0618 26.696 24.9471 27.4994C24.839 28.2559 24.6486 28.7321 24.1392 29.8639L38.7296 36.4305C39.307 35.1475 40.3362 32.9137 40.7864 29.7615C41.2299 26.6561 41.0632 23.1235 40.134 18.8265L24.4955 22.208ZM24.1398 29.8624C23.9345 30.3184 23.6093 31.0336 23.3189 31.8151L38.317 37.388C38.3882 37.1963 38.4862 36.9711 38.7289 36.432L24.1398 29.8624ZM23.3207 31.8101L23.1807 32.1862L38.1751 37.769L38.3151 37.393L23.3207 31.8101ZM23.1822 32.1821C22.8698 33.0198 22.3542 34.3708 22.0161 35.7591L37.5617 39.5451C37.6326 39.2542 37.7767 38.8372 38.1736 37.7731L23.1822 32.1821ZM29.8134 29.6521C30.3358 29.6537 30.6428 29.8792 30.7369 29.9774L19.1847 41.0475C21.912 43.8936 25.6823 45.6395 29.7644 45.652L29.8134 29.6521ZM27.1732 37.4747C27.408 37.5334 27.5987 37.604 27.7589 37.6752C27.9008 37.7382 28.1512 37.8601 28.48 38.0843L19.4652 51.303C20.5531 52.045 21.8966 52.6482 23.2948 52.9975L27.1732 37.4747ZM27.3806 51.9315C27.1092 52.0593 26.9179 52.123 26.8482 52.1447C26.7763 52.1671 26.7942 52.1572 26.9302 52.1292L23.7025 36.4582C22.5935 36.6866 21.537 36.998 20.5646 37.4559L27.3806 51.9315ZM26.9297 52.1293C28.7012 51.7646 30.7616 51.2738 32.6369 50.2204C34.8288 48.9892 36.0755 47.3764 36.7054 46.5766L24.1357 36.677C24.0074 36.8399 23.9442 36.9171 23.908 36.9599C23.8766 36.997 23.9048 36.961 23.9778 36.8885C24.0565 36.8102 24.1761 36.7003 24.3329 36.5801C24.4914 36.4586 24.6509 36.3548 24.8008 36.2706C25.0905 36.1079 25.2342 36.0807 25.046 36.1385C24.9548 36.1665 24.8053 36.2087 24.5765 36.2644C24.3483 36.32 24.0628 36.384 23.703 36.4581L26.9297 52.1293ZM36.7036 46.5789C36.9617 46.2514 37.1272 46.0433 37.3605 45.7826L25.4403 35.1098C24.843 35.7769 24.4087 36.3305 24.1375 36.6747L36.7036 46.5789ZM38.5558 44.024C38.302 44.5316 37.9962 45.008 37.6454 45.4462C37.3334 45.8358 37.0339 46.1263 37.0625 46.0977L25.7392 34.7936C25.7676 34.7651 25.468 35.0557 25.1559 35.4456C24.8048 35.8839 24.499 36.3606 24.245 36.8685L38.5558 44.024ZM37.3669 45.7754C37.3493 45.7951 35.9638 47.4571 33.2904 47.8429C31.9721 48.0331 30.911 47.824 30.323 47.6606C29.8672 47.5339 29.502 47.3697 29.7509 47.473L35.8803 32.6936C35.8727 32.6904 35.2796 32.4317 34.6072 32.2448C33.8024 32.0212 32.5358 31.7861 31.0052 32.0069C27.9075 32.4539 26.0711 34.4036 25.4348 35.1159L37.3669 45.7754ZM29.7559 47.475C28.2993 46.8721 27.4685 45.9675 27.0866 45.4763C26.6506 44.9155 26.3166 44.2745 26.1099 43.5526L41.4917 39.1479C41.1207 37.8524 40.502 36.664 39.7185 35.6561C38.9891 34.7179 37.7478 33.4666 35.8753 32.6915L29.7559 47.475ZM26.1105 43.5549C26.0174 43.2298 25.8616 42.5899 25.8783 41.7382C25.8953 40.8639 26.1093 39.3715 27.1697 37.8866L40.1907 47.1845C42.7666 43.5772 41.6733 39.7816 41.491 39.1457L26.1105 43.5549ZM27.1702 37.8859C27.1394 37.9289 27.1364 37.9256 27.1687 37.8944C27.2016 37.8626 27.2566 37.8158 27.3338 37.7656C27.4106 37.7156 27.4923 37.6732 27.5729 37.6401C27.6524 37.6075 27.7185 37.5888 27.7639 37.5788C27.8497 37.5597 27.8454 37.5743 27.7229 37.5675C27.5987 37.5606 27.4141 37.535 27.176 37.4754L23.2919 52.9968C27.1656 53.9662 34.9653 54.5007 40.1902 47.1852L27.1702 37.8859ZM41.4654 54.0778C41.1326 54.1491 41.2502 54.0732 41.67 54.1367C42.1477 54.2089 42.7305 54.4191 43.2716 54.8064C43.772 55.1645 44.0183 55.5172 44.0805 55.6136C44.1278 55.6869 44.0724 55.6182 43.9245 55.2484L29.0689 61.1908C29.6856 62.7324 31.0013 65.7002 33.9596 67.8174C37.2962 70.2054 41.1894 70.5001 44.8176 69.7227L41.4654 54.0778ZM43.9248 55.2492C44.217 55.98 44.1576 56.2464 44.0366 55.1763C43.9504 54.4135 43.8699 53.3301 43.8101 51.9566C43.6911 49.2257 43.6676 45.6803 43.7732 41.9089L27.7795 41.4611C27.6653 45.5395 27.6867 49.4732 27.8253 52.653C27.8942 54.2349 27.9956 55.7148 28.1379 56.9735C28.2454 57.9249 28.4611 59.671 29.0686 61.19L43.9248 55.2492ZM43.7733 41.9055C43.8012 40.8947 43.6561 39.9344 43.3897 39.058L28.0814 43.7117C27.8726 43.0248 27.7573 42.2663 27.7794 41.4645L43.7733 41.9055ZM43.6618 40.3013C43.5855 39.7431 43.4687 39.1838 43.3093 38.6274L27.9278 43.0328C27.8752 42.8493 27.8355 42.6604 27.8092 42.4684L43.6618 40.3013ZM43.3095 38.628C42.4239 35.535 40.1636 32.422 36.6024 30.946L30.4765 45.7269C29.5966 45.3622 29.0191 44.8449 28.6701 44.4264C28.3134 43.9985 28.0693 43.5271 27.9276 43.0322L43.3095 38.628ZM36.6015 30.9456C36.1694 30.7666 33.2632 29.4283 29.6431 30.3541L33.6075 45.8552C31.6624 46.3527 30.1501 45.5916 30.4774 45.7272L36.6015 30.9456ZM39.3994 39.9925C39.4425 39.8149 39.5592 39.4681 39.9448 38.4345L24.954 32.842C24.6683 33.608 24.1655 34.9228 23.8513 36.2168L39.3994 39.9925ZM39.947 38.4288L40.0879 38.0502L25.0928 32.4691L24.9519 32.8477L39.947 38.4288ZM40.0887 38.0479C40.1368 37.9186 40.2185 37.7289 40.4536 37.2065L25.8632 30.6399C25.6773 31.053 25.3612 31.7474 25.092 32.4714L40.0887 38.0479ZM40.4535 37.2068C41.0618 35.8554 42.1411 33.5038 42.6344 30.1789C43.1228 26.8876 42.9886 23.0812 41.9822 18.4268L26.3436 21.8083C27.0277 24.972 26.9599 26.8052 26.8077 27.8304C26.6606 28.8221 26.3924 29.4643 25.8634 30.6396L40.4535 37.2068ZM41.9821 18.4265C41.3232 15.3796 39.6807 12.3165 36.6324 10.255C33.6586 8.24387 30.3015 7.83189 27.3853 8.13395L29.0338 24.0488C29.3232 24.0188 28.6261 24.1558 27.6692 23.5087C26.6378 22.8112 26.3693 21.9272 26.3436 21.8086L41.9821 18.4265ZM27.3862 8.13386C24.0378 8.48033 21.2578 9.75507 20.0352 10.3749L27.2705 24.6455C27.4719 24.5434 27.794 24.3944 28.1652 24.2654C28.5512 24.1313 28.8506 24.0678 29.033 24.0489L27.3862 8.13386ZM20.0361 10.3744C19.7498 10.5196 19.4828 10.6622 19.2305 10.8031L27.0309 24.7728C27.1008 24.7338 27.1788 24.692 27.2695 24.646L20.0361 10.3744ZM31.1034 18.4491C31.1949 17.3456 31.4095 15.8653 31.8636 14.4371C32.3311 12.9666 32.9091 12.0033 33.4401 11.4677L22.0783 0.202244C16.4739 5.85456 15.4223 13.9406 15.1581 17.1269L31.1034 18.4491ZM33.4402 11.4676C33.8581 11.0461 34.5423 10.5832 36.2392 10.6112L36.5036 -5.38662C31.1326 -5.47538 26.0158 -3.76895 22.0783 0.20229L33.4402 11.4676ZM36.2403 10.6112C40.1898 10.6759 42.6562 12.6061 44.2127 14.4454L56.4262 4.1095C52.9429 -0.00660653 46.4791 -5.22321 36.5024 -5.38664L36.2403 10.6112ZM44.2125 14.4451C45.6429 16.1355 46.3601 17.7983 46.5542 18.3747L61.7178 13.2696C60.9733 11.058 59.3388 7.55145 56.4265 4.10976L44.2125 14.4451ZM54.9451 7.86316C50.5557 7.41695 44.2206 7.90225 40.435 13.3136L53.5453 22.4853C53.2711 22.8773 52.936 23.1946 52.5966 23.4234C52.2699 23.6438 52.0169 23.7305 51.9284 23.7562C51.8471 23.7799 51.9059 23.7521 52.1554 23.7379C52.4033 23.7238 52.7864 23.7262 53.3269 23.7811L54.9451 7.86316ZM40.435 13.3137C38.4729 16.1184 38.0558 19.1764 38.135 21.5555C38.2134 23.9138 38.7881 26.1253 39.3967 27.908C40.604 31.4441 42.4802 34.7686 43.4193 36.4526L57.3935 28.6601C56.3645 26.8148 55.2092 24.7026 54.5386 22.7385C54.2083 21.7711 54.1325 21.2166 54.1261 21.0235C54.1204 20.8511 54.184 21.5723 53.5454 22.4852L40.435 13.3137ZM43.4198 36.4535C43.6081 36.7911 43.7475 37.0414 43.8519 37.2346C43.8759 37.279 43.8946 37.314 43.9087 37.3408C43.9157 37.354 43.921 37.3641 43.9248 37.3715C43.9266 37.3751 43.9281 37.3779 43.929 37.3798C43.93 37.3817 43.9305 37.3826 43.9305 37.3825C43.9304 37.3825 43.9298 37.3813 43.9287 37.379C43.9276 37.3768 43.9258 37.3732 43.9234 37.3683C43.9188 37.3591 43.9108 37.3426 43.9001 37.3201C43.883 37.284 43.8378 37.1874 43.7813 37.0505L58.5723 30.949C58.2411 30.1464 57.5795 28.9937 57.393 28.6593L43.4198 36.4535ZM43.7815 37.0511C44.8867 39.7296 46.344 41.517 47.007 42.3455L59.4994 32.3485C58.9507 31.6629 58.7486 31.3765 58.5721 30.9485L43.7815 37.0511ZM47.0078 42.3465C47.0562 42.4069 47.0936 42.4537 47.1291 42.4983C47.1637 42.5418 47.1888 42.5737 47.2079 42.5982C47.227 42.6228 47.2347 42.6331 47.2343 42.6326C47.2343 42.6326 47.2192 42.6124 47.1939 42.5761L60.3182 33.4245C59.9976 32.9647 59.6312 32.5131 59.4986 32.3475L47.0078 42.3465ZM51.5392 30.3136C50.7043 30.5544 48.0888 31.3133 45.9208 33.7365C43.5779 36.355 42.7901 39.6776 42.9519 42.9717L58.9327 42.1863C58.9242 42.0151 58.9599 42.2411 58.8186 42.7105C58.6655 43.2194 58.3583 43.8311 57.8448 44.4051C56.8601 45.5056 55.739 45.7545 55.9728 45.687L51.5392 30.3136ZM42.9671 41.949C42.844 43.5077 41.8695 51.6234 41.4045 54.3185L57.1715 57.039C57.7258 53.8266 58.7584 45.2219 58.9174 43.209L42.9671 41.949ZM41.4044 54.3194C41.3529 54.618 41.3061 54.822 41.2707 54.9538C41.2355 55.0847 41.218 55.1198 41.2317 55.087C41.247 55.0506 41.2957 54.9425 41.3927 54.7924C41.4922 54.6384 41.6233 54.47 41.7855 54.3058C41.9472 54.1421 42.1049 54.0179 42.2359 53.9303C42.3628 53.8454 42.4423 53.8098 42.4434 53.8093C42.4437 53.8091 42.4256 53.8172 42.3856 53.832C42.3454 53.8468 42.2859 53.8673 42.2037 53.8923C42.0361 53.9435 41.7969 54.0067 41.4644 54.078L44.8185 69.7225C47.366 69.1763 50.5796 68.1702 53.1676 65.5507C55.8052 62.8809 56.7254 59.6262 57.1717 57.0382L41.4044 54.3194ZM57.2455 34.6487C57.3786 34.5869 57.4141 34.5828 57.3187 34.6121C57.2342 34.638 57.0923 34.6763 56.8965 34.717C56.4933 34.8009 56.0211 34.8624 55.5795 34.8832L56.3302 50.8656C58.6818 50.7551 61.63 50.2533 63.983 49.1609L57.2455 34.6487ZM55.5803 34.8831C55.085 34.9064 54.9542 34.8653 55.1176 34.8935C55.1947 34.9068 55.4294 34.9512 55.7735 35.0709C55.9468 35.1312 56.2048 35.2303 56.515 35.3847C56.7896 35.5213 57.306 35.7998 57.8863 36.2732L47.7719 48.6707C48.9 49.5911 50.0343 50.0148 50.5156 50.1823C51.1674 50.4091 51.8094 50.5592 52.3993 50.6609C53.5883 50.8659 54.9055 50.9323 56.3294 50.8656L55.5803 34.8831ZM60.8196 42.0828C60.8001 41.6818 61.0236 43.5435 59.425 45.4791C57.8882 47.3401 55.7547 47.712 56.5828 47.4794L52.2577 32.0751C52.2122 32.0879 49.2292 32.6983 47.0882 35.2908C44.8854 37.9581 44.7501 41.0445 44.8386 42.8611L60.8196 42.0828ZM56.5899 47.4775C56.6683 47.4554 57.0544 47.3499 57.4619 47.2074L52.1795 32.1045C52.2281 32.0875 52.2674 32.0746 52.2945 32.066C52.3215 32.0574 52.3393 32.0521 52.3445 32.0505C52.3492 32.0491 52.3462 32.0501 52.3294 32.0549C52.3213 32.0572 52.3113 32.06 52.2979 32.0638C52.2835 32.0679 52.2701 32.0716 52.2506 32.0771L56.5899 47.4775ZM49.7733 45.8627C50.0593 46.0953 50.3614 46.3173 50.6794 46.5271L59.4914 33.1724C59.6168 33.2552 59.7428 33.3473 59.8681 33.4492L49.7733 45.8627ZM50.6784 46.5265C53.1195 48.1377 55.8128 48.6026 57.9772 48.689C60.21 48.7781 62.5573 48.4903 64.8801 48.0109L61.6458 32.3412C60.0847 32.6634 59.1145 32.7216 58.6151 32.7017C58.3823 32.6924 58.3649 32.6699 58.5038 32.7065C58.6464 32.744 59.021 32.862 59.4923 33.1731L50.6784 46.5265ZM64.9278 48.0009C64.9051 48.0057 64.8868 48.0095 64.8746 48.012C64.8629 48.0144 64.8544 48.0161 64.8533 48.0163C64.8527 48.0164 64.8525 48.0165 64.8546 48.0161C64.856 48.0158 64.8598 48.015 64.8639 48.0142C64.8721 48.0126 64.8878 48.0094 64.9069 48.0055L61.7043 32.3293C61.7163 32.3269 61.7249 32.3251 61.7261 32.3249C61.7266 32.3248 61.7269 32.3247 61.7248 32.3252C61.7233 32.3255 61.7195 32.3262 61.7154 32.327C61.7011 32.3299 61.6549 32.3391 61.5982 32.3512L64.9278 48.0009ZM57.8414 34.3242C57.9246 34.2465 57.9166 34.2659 57.7988 34.3446C57.6886 34.4181 57.5049 34.5282 57.2452 34.6488L63.9834 49.1608C65.9763 48.2354 67.5902 47.1137 68.7697 46.0106L57.8414 34.3242Z" fill="#7B4AE2" fill-opacity="0.5" mask="url(#path-3-inside-1_21_3180)"/>
</g>
<defs>
<filter id="filter0_dd_21_3180" x="0" y="0" width="69.7308" height="72" filterUnits="userSpaceOnUse" color-interpolation-filters="sRGB">
<feFlood flood-opacity="0" result="BackgroundImageFix"/>
<feColorMatrix in="SourceAlpha" type="matrix" values="0 0 0 0 0 0 0 0 0 0 0 0 0 0 0 0 0 0 127 0" result="hardAlpha"/>
<feOffset dy="4"/>
<feGaussianBlur stdDeviation="2"/>
<feComposite in2="hardAlpha" operator="out"/>
<feColorMatrix type="matrix" values="0 0 0 0 0 0 0 0 0 0 0 0 0 0 0 0 0 0 0.25 0"/>
<feBlend mode="normal" in2="BackgroundImageFix" result="effect1_dropShadow_21_3180"/>
<feColorMatrix in="SourceAlpha" type="matrix" values="0 0 0 0 0 0 0 0 0 0 0 0 0 0 0 0 0 0 127 0" result="hardAlpha"/>
<feOffset dy="4"/>
<feGaussianBlur stdDeviation="2"/>
<feComposite in2="hardAlpha" operator="out"/>
<feColorMatrix type="matrix" values="0 0 0 0 0 0 0 0 0 0 0 0 0 0 0 0 0 0 0.25 0"/>
<feBlend mode="normal" in2="effect1_dropShadow_21_3180" result="effect2_dropShadow_21_3180"/>
<feBlend mode="normal" in="SourceGraphic" in2="effect2_dropShadow_21_3180" result="shape"/>
</filter>
</defs>
</svg>
