<svg width="138" height="42" viewBox="0 0 138 42" fill="none" xmlns="http://www.w3.org/2000/svg">
<g filter="url(#filter0_d_30_56)">
<g clip-path="url(#clip0_30_56)">
<path d="M19.9999 0C28.837 0 36 7.164 36 16.0001C36 24.8361 28.837 32 19.9999 32C11.1629 32 4 24.836 4 16.0001C4 7.16411 11.163 0 19.9999 0Z" fill="white" fill-opacity="0.5"/>
<path d="M13.016 21.984H16.012V11.998H13.016V21.984ZM24.688 11.6521C23.234 11.6521 21.933 12.183 21.0101 13.3551V11.9651H18.0031V21.9841H21.0101V16.5661C21.0101 15.4211 22.0591 14.304 23.3731 14.304C24.687 14.304 25.0111 15.4211 25.0111 16.5381V21.9831H28.0071V16.3151C28.007 12.378 26.143 11.6521 24.688 11.6521ZM14.5 11C15.328 11 16 10.328 16 9.49997C16 8.67195 15.328 8.00003 14.5 8.00003C13.672 8.00003 12.9999 8.67206 12.9999 9.50008C12.9999 10.3281 13.672 11 14.5 11Z" fill="#090E16"/>
</g>
<path fill-rule="evenodd" clip-rule="evenodd" d="M68.7381 0.333344C59.6745 0.333344 52.3334 7.67445 52.3334 16.738C52.3334 23.9971 57.0292 30.1284 63.5501 32.302C64.3703 32.4455 64.6779 31.9534 64.6779 31.5228C64.6779 31.1332 64.6574 29.8413 64.6574 28.4674C60.5357 29.2261 59.4694 27.4626 59.1413 26.5399C58.9568 26.0682 58.157 24.6123 57.4598 24.2227C56.8857 23.9151 56.0654 23.1564 57.4393 23.1359C58.7312 23.1154 59.654 24.3252 59.9616 24.8174C61.438 27.2986 63.7962 26.6014 64.7394 26.1707C64.883 25.1044 65.3136 24.3867 65.7852 23.9766C62.1352 23.5665 58.3211 22.1516 58.3211 15.8768C58.3211 14.0928 58.9568 12.6164 60.0026 11.468C59.8385 11.0579 59.2644 9.37644 60.1666 7.12079C60.1666 7.12079 61.5405 6.69017 64.6779 8.80227C65.9903 8.43316 67.3847 8.24861 68.7791 8.24861C70.1735 8.24861 71.5679 8.43316 72.8803 8.80227C76.0177 6.66966 77.3916 7.12079 77.3916 7.12079C78.2938 9.37644 77.7197 11.0579 77.5556 11.468C78.6014 12.6164 79.2371 14.0723 79.2371 15.8768C79.2371 22.1721 75.4025 23.5665 71.7524 23.9766C72.3471 24.4893 72.8598 25.4735 72.8598 27.0115C72.8598 29.2056 72.8393 30.9691 72.8393 31.5228C72.8393 31.9534 73.1468 32.4661 73.9671 32.302C80.4469 30.1284 85.1428 23.9766 85.1428 16.738C85.1428 7.67445 77.8017 0.333344 68.7381 0.333344Z" fill="white" fill-opacity="0.5"/>
<path d="M122.416 16.704C122.193 16.7031 121.973 16.7487 121.768 16.838C121.564 16.9272 121.381 17.0581 121.23 17.2223C121.08 17.3865 120.965 17.5803 120.894 17.7914C120.822 18.0024 120.796 18.2261 120.816 18.448H124.112C124.133 18.2177 124.104 17.9856 124.027 17.7676C123.95 17.5497 123.827 17.3509 123.666 17.1852C123.505 17.0194 123.309 16.8906 123.094 16.8075C122.878 16.7244 122.647 16.6891 122.416 16.704Z" fill="white" fill-opacity="0.5"/>
<path d="M113.984 18.48H112.016V21.584H113.616C115.216 21.584 115.92 21.056 115.92 19.984C115.92 18.912 115.184 18.48 113.984 18.48Z" fill="white" fill-opacity="0.5"/>
<path d="M115.376 15.632C115.376 14.784 114.816 14.272 113.856 14.272H112.016V17.056H113.376C114.8 17.056 115.376 16.544 115.376 15.632Z" fill="white" fill-opacity="0.5"/>
<path d="M118 2C114.836 2 111.742 2.93838 109.111 4.69649C106.48 6.45459 104.429 8.95344 103.218 11.8771C102.007 14.8007 101.69 18.0177 102.307 21.1214C102.925 24.2251 104.449 27.0761 106.686 29.3137C108.924 31.5513 111.775 33.0752 114.879 33.6926C117.982 34.3099 121.199 33.9931 124.123 32.7821C127.047 31.5711 129.545 29.5203 131.304 26.8891C133.062 24.2579 134 21.1645 134 18C134 15.8988 133.586 13.8183 132.782 11.8771C131.978 9.93585 130.799 8.17203 129.314 6.68629C127.828 5.20055 126.064 4.022 124.123 3.21793C122.182 2.41385 120.101 2 118 2ZM114.32 23.12H110V12.72H114.32C116.192 12.72 117.424 13.696 117.424 15.28C117.446 15.8121 117.278 16.3347 116.949 16.7541C116.621 17.1734 116.154 17.4619 115.632 17.568C115.963 17.5757 116.289 17.6507 116.589 17.7886C116.89 17.9265 117.159 18.1244 117.381 18.37C117.603 18.6156 117.772 18.9039 117.878 19.2172C117.985 19.5305 118.026 19.8622 118 20.192C118 22.048 116.4 23.12 114.32 23.12ZM120 13.52H124.8V14.32H120V13.52ZM126 19.68H120.72V19.904C120.692 20.1471 120.717 20.3933 120.793 20.626C120.869 20.8587 120.993 21.0725 121.159 21.2529C121.324 21.4333 121.526 21.5762 121.751 21.672C121.976 21.7677 122.219 21.8141 122.464 21.808C122.807 21.8614 123.159 21.7887 123.453 21.6034C123.747 21.4182 123.964 21.1328 124.064 20.8H126C125.828 21.568 125.378 22.2456 124.738 22.7031C124.097 23.1606 123.31 23.366 122.528 23.28C122.028 23.3305 121.523 23.2708 121.048 23.1051C120.574 22.9394 120.141 22.6718 119.781 22.321C119.421 21.9702 119.143 21.5448 118.965 21.0747C118.787 20.6046 118.714 20.1012 118.752 19.6V18.896C118.718 18.4103 118.789 17.9231 118.961 17.4677C119.133 17.0122 119.402 16.5994 119.748 16.2574C120.095 15.9154 120.511 15.6525 120.969 15.4865C121.427 15.3206 121.915 15.2556 122.4 15.296C122.884 15.265 123.368 15.338 123.821 15.51C124.274 15.682 124.685 15.949 125.026 16.2932C125.367 16.6373 125.631 17.0505 125.799 17.505C125.967 17.9595 126.035 18.4447 126 18.928V19.68Z" fill="white" fill-opacity="0.5"/>
</g>
<defs>
<filter id="filter0_d_30_56" x="0" y="0" width="138" height="42" filterUnits="userSpaceOnUse" color-interpolation-filters="sRGB">
<feFlood flood-opacity="0" result="BackgroundImageFix"/>
<feColorMatrix in="SourceAlpha" type="matrix" values="0 0 0 0 0 0 0 0 0 0 0 0 0 0 0 0 0 0 127 0" result="hardAlpha"/>
<feOffset dy="4"/>
<feGaussianBlur stdDeviation="2"/>
<feComposite in2="hardAlpha" operator="out"/>
<feColorMatrix type="matrix" values="0 0 0 0 0 0 0 0 0 0 0 0 0 0 0 0 0 0 0.25 0"/>
<feBlend mode="normal" in2="BackgroundImageFix" result="effect1_dropShadow_30_56"/><feBlend mode="normal" in="SourceGraphic" in2="effect1_dropShadow_30_56" result="shape"/></filter><clipPath id="clip0_30_56"><rect width="32" height="32" fill="white" transform="translate(4)"/></clipPath></defs></svg>
